<svg width="74" height="60" viewBox="0 0 74 60" fill="none" xmlns="http://www.w3.org/2000/svg">
<path d="M62.16 26.5547C62.6341 25.3008 62.9 23.9297 62.9 22.5C62.9 16.2891 57.9281 11.25 51.8 11.25C49.5222 11.25 47.3947 11.9531 45.6372 13.1484C42.4344 7.52344 36.4566 3.75 29.6 3.75C19.3787 3.75 11.1 12.1406 11.1 22.5C11.1 22.8164 11.1116 23.1328 11.1231 23.4492C4.64812 25.7578 0 32.0156 0 39.375C0 48.6914 7.45781 56.25 16.65 56.25H59.2C67.3747 56.25 74 49.5352 74 41.25C74 33.9961 68.9125 27.9375 62.16 26.5547ZM45.9841 34.0195L44.7353 35.2852C43.6253 36.4102 41.8216 36.375 40.7463 35.2266L37 31.1836V45.9375C37 47.4961 35.7628 48.75 34.225 48.75H32.375C30.8372 48.75 29.6 47.4961 29.6 45.9375V31.1836L25.8538 35.2266C24.7784 36.3867 22.9747 36.4102 21.8647 35.2852L20.6159 34.0195C19.5291 32.918 19.5291 31.1367 20.6159 30.0469L31.3344 19.1836C32.4212 18.082 34.1787 18.082 35.2541 19.1836L45.9725 30.0469C47.0594 31.1484 47.0594 32.9297 45.9841 34.0195Z" fill="#622BF5"/>
</svg>
