<svg width="23" height="20" viewBox="0 0 23 20" fill="none" xmlns="http://www.w3.org/2000/svg">
<g clip-path="url(#clip0_2887_8196)">
<path d="M16.25 7.5C16.25 4.04688 12.6133 1.25 8.125 1.25C3.63672 1.25 0 4.04688 0 7.5C0 8.83984 0.550781 10.0742 1.48438 11.0938C0.960938 12.2734 0.0976562 13.2109 0.0859375 13.2227C0 13.3125 -0.0234375 13.4453 0.0273438 13.5625C0.078125 13.6797 0.1875 13.75 0.3125 13.75C1.74219 13.75 2.92578 13.2695 3.77734 12.7734C5.03516 13.3867 6.52344 13.75 8.125 13.75C12.6133 13.75 16.25 10.9531 16.25 7.5ZM21.0156 16.0938C21.9492 15.0781 22.5 13.8398 22.5 12.5C22.5 9.88672 20.4102 7.64844 17.4492 6.71484C17.4844 6.97266 17.5 7.23438 17.5 7.5C17.5 11.6367 13.293 15 8.125 15C7.70312 15 7.29297 14.9688 6.88672 14.9258C8.11719 17.1719 11.0078 18.75 14.375 18.75C15.9766 18.75 17.4648 18.3906 18.7227 17.7734C19.5742 18.2695 20.7578 18.75 22.1875 18.75C22.3125 18.75 22.4258 18.6758 22.4727 18.5625C22.5234 18.4492 22.5 18.3164 22.4141 18.2227C22.4023 18.2109 21.5391 17.2773 21.0156 16.0938Z" fill="#622BF5"/>
</g>
<defs>
<clipPath id="clip0_2887_8196">
<rect width="22.5" height="20" fill="white"/>
</clipPath>
</defs>
</svg>
