<svg width="20" height="20" viewBox="0 0 20 20" fill="none" xmlns="http://www.w3.org/2000/svg">
<path d="M20 7.84863C20 8.77051 19.1914 9.55957 18.25 9.55957H14.3477C14.9844 10.2236 15.0625 11.5049 14.1016 12.3291C14.6602 13.2197 14.1836 14.3994 13.457 14.7627C13.8125 16.6846 12.6055 17.5479 10.625 17.5479C10.5195 17.5479 10.1055 17.54 10 17.54C7.57812 17.5479 6.99609 16.3252 5.16797 16.0439C4.71094 15.9736 4.375 15.5791 4.375 15.1182V8.41895C4.375 7.7002 4.78906 7.0166 5.48828 6.70801C6.61719 6.2002 9.21484 4.79395 9.6875 3.68848C9.99219 2.97754 10.5234 2.55176 11.25 2.55176C12.5859 2.55176 13.5078 3.92285 12.9727 5.16504C12.832 5.49316 12.6484 5.81738 12.418 6.1377H18.25C19.168 6.1377 20 6.93848 20 7.84863ZM3.75 7.86035V15.3604C3.75 15.8799 3.33203 16.2979 2.8125 16.2979H0.9375C0.417969 16.2979 0 15.8799 0 15.3604V7.86035C0 7.34082 0.417969 6.92285 0.9375 6.92285H2.8125C3.33203 6.92285 3.75 7.34082 3.75 7.86035ZM2.65625 14.4229C2.65625 13.9932 2.30469 13.6416 1.875 13.6416C1.44531 13.6416 1.09375 13.9932 1.09375 14.4229C1.09375 14.8525 1.44531 15.2041 1.875 15.2041C2.30469 15.2041 2.65625 14.8525 2.65625 14.4229Z" fill="#622BF5"/>
</svg>
