<svg width="20" height="20" viewBox="0 0 20 20" fill="none" xmlns="http://www.w3.org/2000/svg">
<path d="M18.125 17.5H1.875C0.839844 17.5 0 16.6602 0 15.625V4.375C0 3.33984 0.839844 2.5 1.875 2.5H18.125C19.1602 2.5 20 3.33984 20 4.375V15.625C20 16.6602 19.1602 17.5 18.125 17.5ZM4.375 4.6875C3.16797 4.6875 2.1875 5.66797 2.1875 6.875C2.1875 8.08203 3.16797 9.0625 4.375 9.0625C5.58203 9.0625 6.5625 8.08203 6.5625 6.875C6.5625 5.66797 5.58203 4.6875 4.375 4.6875ZM2.5 15H17.5V10.625L14.082 7.20703C13.8984 7.02344 13.6016 7.02344 13.418 7.20703L8.125 12.5L5.95703 10.332C5.77344 10.1484 5.47656 10.1484 5.29297 10.332L2.5 13.125V15Z" fill="#622BF5"/>
</svg>
