<svg width="20" height="20" viewBox="0 0 20 20" fill="none" xmlns="http://www.w3.org/2000/svg">
<g clip-path="url(#clip0_2887_8208)">
<path d="M15 9.375V10.625C15 10.8828 14.7891 11.0938 14.5312 11.0938H11.0938V14.5312C11.0938 14.7891 10.8828 15 10.625 15H9.375C9.11719 15 8.90625 14.7891 8.90625 14.5312V11.0938H5.46875C5.21094 11.0938 5 10.8828 5 10.625V9.375C5 9.11719 5.21094 8.90625 5.46875 8.90625H8.90625V5.46875C8.90625 5.21094 9.11719 5 9.375 5H10.625C10.8828 5 11.0938 5.21094 11.0938 5.46875V8.90625H14.5312C14.7891 8.90625 15 9.11719 15 9.375ZM19.6875 10C19.6875 15.3516 15.3516 19.6875 10 19.6875C4.64844 19.6875 0.3125 15.3516 0.3125 10C0.3125 4.64844 4.64844 0.3125 10 0.3125C15.3516 0.3125 19.6875 4.64844 19.6875 10ZM17.8125 10C17.8125 5.68359 14.3164 2.1875 10 2.1875C5.68359 2.1875 2.1875 5.68359 2.1875 10C2.1875 14.3164 5.68359 17.8125 10 17.8125C14.3164 17.8125 17.8125 14.3164 17.8125 10Z" fill="#622BF5"/>
</g>
<defs>
<clipPath id="clip0_2887_8208">
<rect width="20" height="20" fill="white"/>
</clipPath>
</defs>
</svg>
