<svg width="25" height="20" viewBox="0 0 25 20" fill="none" xmlns="http://www.w3.org/2000/svg">
<g clip-path="url(#clip0_2887_8211)">
<path d="M23.5154 4.63281L20.9802 0.585938C20.7537 0.222656 20.3513 0 19.9216 0H4.14038C3.71069 0 3.30835 0.222656 3.08179 0.585938L0.546629 4.63281C-0.761964 6.72266 0.398192 9.62891 2.8435 9.96094C3.01929 9.98438 3.19897 9.99609 3.37866 9.99609C4.53491 9.99609 5.55835 9.48828 6.26147 8.70312C6.9646 9.48828 7.99194 9.99609 9.14429 9.99609C10.3005 9.99609 11.324 9.48828 12.0271 8.70312C12.7302 9.48828 13.7576 9.99609 14.9099 9.99609C16.0662 9.99609 17.0896 9.48828 17.7927 8.70312C18.4998 9.48828 19.5232 9.99609 20.6755 9.99609C20.8591 9.99609 21.0349 9.98438 21.2107 9.96094C23.6638 9.63281 24.8279 6.72656 23.5154 4.63281ZM20.6833 11.25C20.2927 11.25 19.906 11.1914 19.531 11.1016V15H4.531V11.1016C4.156 11.1875 3.76929 11.25 3.37866 11.25C3.14429 11.25 2.906 11.2344 2.67554 11.2031C2.45679 11.1719 2.24194 11.1211 2.03491 11.0625V18.75C2.03491 19.4414 2.5935 20 3.28491 20H20.7849C21.4763 20 22.0349 19.4414 22.0349 18.75V11.0625C21.824 11.125 21.613 11.1758 21.3943 11.2031C21.156 11.2344 20.9216 11.25 20.6833 11.25Z" fill="#622BF5"/>
</g>
<defs>
<clipPath id="clip0_2887_8211">
<rect width="24.0625" height="20" fill="white"/>
</clipPath>
</defs>
</svg>
